<svg xmlns="http://www.w3.org/2000/svg" xmlns:xlink="http://www.w3.org/1999/xlink" xmlns:lucid="lucid" width="1645.22" height="1234.44"><g transform="translate(0 0)" lucid:page-tab-id="0_0"><path d="M85.65 230.33c0-4.4 3.58-8 8-8h174.07c4.42 0 8 3.6 8 8v104c0 4.42-3.58 8-8 8H93.65c-4.42 0-8-3.58-8-8z" stroke="#333" fill="#fff"/><use xlink:href="#a" transform="matrix(1,0,0,1,85.64590300360257,222.3344480576411) translate(47.01543209876543 64.94444444444444)"/><path d="M180.57 342.83V1200" fill="none"/><path d="M180.57 342.83v5.02m0 5v10.04m0 5v10.02m0 5.02v10.02m0 5V408m0 5v10.04m0 5v10.04m0 5v10.03m0 5.03v10.02m0 5v10.04m0 5v10.03m0 5v10.04m0 5v10.03m0 5.02v10.02m0 5v10.04m0 5v10.04m0 5v10.03m0 5.02v10.02m0 5v10.03m0 5v10.04m0 5v10.04m0 5.02v10.02m0 5.02v10.02m0 5.02v10.02m0 5v10.04m0 5v10.04m0 5v10.03m0 5.02v10.02m0 5.02v10m0 5.02v10.03m0 5V799m0 5v10.02m0 5.02v10.02m0 5.02v10.02m0 5v10.04m0 5v10.04m0 5v10.03m0 5.03v10.02m0 5.02v10.02m0 5v10.03m0 5v10.04m0 5v10.03m0 5.02v10.02m0 5.02v10.02m0 5v10.04m0 5v10.04m0 5v10.03m0 5v10.03m0 5.02v10.02m0 5v10.04m0 5.02v10.03m0 5v10.03m0 5.02v10.02m0 5.02v10.02m0 5v10.04m0 5v10.04m0 5v10.03m0 5.02v5" stroke="#666" fill="none"/><path d="M181.07 342.83h-1v-.5h1z" fill="#666"/><path d="M159.75 420.06c0-4.42 3.6-8 8-8h24c4.42 0 8 3.58 8 8V1152c0 4.42-3.58 8-8 8h-24c-4.4 0-8-3.58-8-8z" stroke="#f2f2f2" fill="#d2d3d5"/><path d="M404.84 230.33c0-4.4 3.58-8 8-8h174.08c4.4 0 8 3.6 8 8v104c0 4.42-3.6 8-8 8H412.84c-4.42 0-8-3.58-8-8z" stroke="#333" fill="#fff"/><use xlink:href="#b" transform="matrix(1,0,0,1,404.8399121869744,222.3344480576411) translate(62.26851851851851 64.94444444444444)"/><path d="M724.03 230.33c0-4.4 3.6-8 8-8H906.1c4.43 0 8 3.6 8 8v104c0 4.42-3.57 8-8 8H732.04c-4.4 0-8-3.58-8-8z" stroke="#333" fill="#fff"/><use xlink:href="#c" transform="matrix(1,0,0,1,724.0339213703461,222.3344480576411) translate(45.02777777777778 64.94444444444444)"/><path d="M499.88 342.83V1200" fill="none"/><path d="M499.88 342.83v5.02m0 5v10.04m0 5v10.02m0 5.02v10.02m0 5V408m0 5v10.04m0 5v10.04m0 5v10.03m0 5.03v10.02m0 5v10.04m0 5v10.03m0 5v10.04m0 5v10.03m0 5.02v10.02m0 5v10.04m0 5v10.04m0 5v10.03m0 5.02v10.02m0 5v10.03m0 5v10.04m0 5v10.04m0 5.02v10.02m0 5.02v10.02m0 5.02v10.02m0 5v10.04m0 5v10.04m0 5v10.03m0 5.02v10.02m0 5.02v10m0 5.02v10.03m0 5V799m0 5v10.02m0 5.02v10.02m0 5.02v10.02m0 5v10.04m0 5v10.04m0 5v10.03m0 5.03v10.02m0 5.02v10.02m0 5v10.03m0 5v10.04m0 5v10.03m0 5.02v10.02m0 5.02v10.02m0 5v10.04m0 5v10.04m0 5v10.03m0 5v10.03m0 5.02v10.02m0 5v10.04m0 5.02v10.03m0 5v10.03m0 5.02v10.02m0 5.02v10.02m0 5v10.04m0 5v10.04m0 5v10.03m0 5.02v5" stroke="#666" fill="none"/><path d="M500.38 342.83h-1v-.5h1z" fill="#666"/><path d="M476.12 468c0-4.42 3.58-8 8-8h24c4.42 0 8 3.58 8 8v464c0 4.42-3.58 8-8 8h-24c-4.42 0-8-3.58-8-8z" stroke="#f2f2f2" fill="#d2d3d5"/><path d="M200.25 482.06h137.52c.1 0 .17-.07.17-.16 0-.1.07-.17.16-.17h121.13" stroke="#999" fill="none"/><path d="M200.25 482.56h-.5v-1h.5z" fill="#999"/><path d="M474 481.73l-14.27 4.63v-9.27z" stroke="#999" fill="#999"/><use xlink:href="#d" transform="matrix(1,0,0,1,289.20859469324864,459.0630167846819) translate(0 12.444444444444446)"/><path d="M819.07 342.83v428.12c0 .26.2.47.47.47.25 0 .46.2.46.46V1200" fill="none"/><path d="M819.07 342.83v4.93m0 4.92v9.84m0 4.92v9.84m0 4.92v9.84m0 4.92v9.85m0 4.93v9.84m0 4.92v9.83m0 4.92v9.84m0 4.92v9.84m0 4.92v9.84m0 4.92v9.84m0 4.92v9.85m0 4.92v9.84m0 4.93v9.84m0 4.92v9.83m0 4.92v9.85m0 4.92v9.84m0 4.92v9.84m0 4.92v9.84m0 4.93v9.85m0 4.92V643m0 4.93v9.84m0 4.92v9.83m0 4.93v9.84m0 4.92v9.84m0 4.92v9.84m0 4.92v9.85m0 4.9v9.85m0 4.92v9.84m0 4.93v4.92l.14.33.34.14.32.13.14.33v4.92m0 4.92v9.85m0 4.92v9.83m0 4.92v9.84m0 4.9v9.85m0 4.92v9.85m0 4.92v9.84m0 4.92v9.84m0 4.92v9.84m0 4.92v9.85m0 4.92v9.83m0 4.92v9.84m0 4.9v9.85m0 4.93v9.84m0 4.92v9.84m0 4.92v9.84m0 4.92v9.85m0 4.93v9.84m0 4.92v9.83m0 4.92v9.84m0 4.9v9.86m0 4.92v9.84m0 4.92v9.84m0 4.92v9.84m0 4.93v9.84m0 4.93v9.84m0 4.92v9.83m0 4.92v9.85m0 4.92v9.84m0 4.92v4.92" stroke="#666" fill="none"/><path d="M819.57 342.83h-1v-.5h1z" fill="#666"/><path d="M540 58.97c0-2.76 2.24-5 5-5h541.63c2.77 0 5 2.24 5 5v87.13c0 2.77-2.23 5-5 5H545c-2.76 0-5-2.23-5-5z" stroke="#000" stroke-opacity="0" fill="#fff" fill-opacity="0"/><use xlink:href="#e" transform="matrix(1,0,0,1,540,53.973723398055014) translate(79.25925925925921 55.020833333333336)"/><use xlink:href="#f" transform="matrix(1,0,0,1,540,53.973723398055014) translate(233.1111111111111 55.020833333333336)"/><use xlink:href="#g" transform="matrix(1,0,0,1,540,53.973723398055014) translate(366.2222222222223 55.020833333333336)"/><path d="M621.55 124.23h404.78M621.55 124.23h-3M1026.33 124.23h3" stroke="#b2b2b2" fill="none"/><path d="M614.44 130.2c0-2.76 2.23-5 5-5h390c2.76 0 5 2.24 5 5V155c0 2.76-2.24 5-5 5h-390c-2.77 0-5-2.24-5-5z" stroke="#000" stroke-opacity="0" fill="#fff" fill-opacity="0"/><use xlink:href="#h" transform="matrix(1,0,0,1,614.4360846743293,125.20031890890564) translate(84.5 21.194444444444446)"/><use xlink:href="#i" transform="matrix(1,0,0,1,614.4360846743293,125.20031890890564) translate(116.38888888888889 21.194444444444446)"/><use xlink:href="#j" transform="matrix(1,0,0,1,614.4360846743293,125.20031890890564) translate(175.9320987654321 21.194444444444446)"/><use xlink:href="#k" transform="matrix(1,0,0,1,614.4360846743293,125.20031890890564) translate(188.5925925925926 21.194444444444446)"/><use xlink:href="#l" transform="matrix(1,0,0,1,614.4360846743293,125.20031890890564) translate(255.00617283950618 21.194444444444446)"/><use xlink:href="#m" transform="matrix(1,0,0,1,614.4360846743293,125.20031890890564) translate(280.9320987654321 21.194444444444446)"/><path d="M200.25 530.1h258.98" stroke="#999" fill="none"/><path d="M474 530.1l-14.27 4.65v-9.27z" stroke="#999" fill="#999"/><use xlink:href="#n" transform="matrix(1,0,0,1,287.056179066942,507.4459659547128) translate(0 12.444444444444446)"/><path d="M200.25 581.25h258.98" stroke="#999" fill="none"/><path d="M200.25 581.75h-.5v-1h.5z" fill="#999"/><path d="M474 581.25l-14.27 4.64v-9.3z" stroke="#999" fill="#999"/><use xlink:href="#o" transform="matrix(1,0,0,1,299.1333395607691,558.5833333333333) translate(0 12.444444444444446)"/><path d="M216.64 635.5h258.98" stroke="#999" fill="none"/><path d="M201.87 635.5l14.27-4.64v9.27z" stroke="#999" fill="#999"/><path d="M476.12 636h-.5v-1h.5z" fill="#999"/><use xlink:href="#p" transform="matrix(1,0,0,1,303.0438333879296,612.8257385689482) translate(0 12.444444444444446)"/><path d="M1043.23 230.33c0-4.4 3.58-8 8-8h174.07c4.42 0 8 3.6 8 8v104c0 4.42-3.58 8-8 8h-174.07c-4.42 0-8-3.58-8-8z" stroke="#333" fill="#fff"/><use xlink:href="#q" transform="matrix(1,0,0,1,1043.227930553718,222.3344480576411) translate(56.80246913580247 64.94444444444444)"/><path d="M1138.27 342.83V1200" fill="none"/><path d="M1138.27 342.83v5.02m0 5v10.04m0 5v10.02m0 5.02v10.02m0 5V408m0 5v10.04m0 5v10.04m0 5v10.03m0 5.03v10.02m0 5v10.04m0 5v10.03m0 5v10.04m0 5v10.03m0 5.02v10.02m0 5v10.04m0 5v10.04m0 5v10.03m0 5.02v10.02m0 5v10.03m0 5v10.04m0 5v10.04m0 5.02v10.02m0 5.02v10.02m0 5.02v10.02m0 5v10.04m0 5v10.04m0 5v10.03m0 5.02v10.02m0 5.02v10m0 5.02v10.03m0 5V799m0 5v10.02m0 5.02v10.02m0 5.02v10.02m0 5v10.04m0 5v10.04m0 5v10.03m0 5.03v10.02m0 5.02v10.02m0 5v10.03m0 5v10.04m0 5v10.03m0 5.02v10.02m0 5.02v10.02m0 5v10.04m0 5v10.04m0 5v10.03m0 5v10.03m0 5.02v10.02m0 5v10.04m0 5.02v10.03m0 5v10.03m0 5.02v10.02m0 5.02v10.02m0 5v10.04m0 5v10.04m0 5v10.03m0 5.02v5" stroke="#666" fill="none"/><path d="M1138.77 342.83h-1v-.5h1z" fill="#666"/><path d="M1362.42 230.33c0-4.4 3.58-8 8-8h174.08c4.42 0 8 3.6 8 8v104c0 4.42-3.58 8-8 8h-174.08c-4.42 0-8-3.58-8-8z" stroke="#333" fill="#fff"/><use xlink:href="#r" transform="matrix(1,0,0,1,1362.4219397370898,222.3344480576411) translate(49.73765432098765 64.94444444444444)"/><path d="M1457.96 1200h-1v-5h1zm0-10.03h-1v-10.02h1zm0-15.03h-1v-10.03h1zm0-15.04h-1v-10.03h1zm0-15.04h-1v-10.02h1zm0-15.04h-1v-10.02h1zm0-15.04h-1v-10.02h1zm0-15.03h-1v-10.03h1zm0-15.04h-1v-1.62h1zm0-20.28h-1v-4.77h1zm0-9.8h-1v-10h1zm0-15.03h-1v-10.03h1zm0-15.04h-1v-10.03h1zm0-15.04h-1V999.5h1zm0-15.04h-1v-10.02h1zm0-15.04h-1v-10.02h1zm0-15.04h-1v-10.02h1zm0-15.03h-1v-10.03h1zm0-15.04h-1V924.3h1zm0-15.04h-1v-10.03h1zm0-15.05h-1v-10.02h1zm0-15.04h-1v-10h1zm0-15.02h-1v-10.03h1zm0-15.04h-1V849.1h1zm0-15.04h-1v-10.02h1zm0-15.04h-1v-10.02h1zm0-15.04h-1V804h1zm0-15.03h-1v-10.04h1zm0-15.05h-1v-10.03h1zm0-15.04h-1v-10h1zm0-15.03h-1v-10.02h1zm0-15.04h-1V728.8h1zm0-15.03h-1v-10.03h1zm0-15.04h-1v-10.03h1zm0-15.04h-1V683.7h1zm0-15.04h-1v-10.02h1zm0-15.04h-1v-10.02h1zm0-15.03h-1V638.6h1zm0-15.03h-1v-10.03h1zm0-15.04h-1V608.5h1zm0-15.04h-1v-10.03h1zm0-15.05h-1v-10.02h1zm0-15.03h-1V563.4h1zm0-15.04h-1v-10.03h1zm0-15.04h-1v-10.02h1zm0-15.04h-1v-10.02h1zm0-15.03h-1v-10.03h1zm0-15.04h-1V488.2h1zm0-15.04h-1v-10.04h1zm0-15.05h-1v-10.02h1zm0-15.04h-1v-10h1zm0-15.02h-1v-10.03h1zm0-15.04h-1V413h1zm0-15.04h-1v-10.03h1zm0-15.04h-1v-10.02h1zm0-15.04h-1V367.9h1zm0-15.03h-1v-10.04h1zm0-15.05h-1v-5.02h1z" fill="#666"/><path d="M1457.96 342.83h-1v-.5h1z" fill="#666"/><use xlink:href="#s" transform="matrix(1,0,0,1,1437.6262254686799,1064.417040078327) translate(0.004999999999999005 12.444444444444446)"/><path d="M799.07 648c0-4.42 3.58-8 8-8h24c4.42 0 8 3.58 8 8v124c0 4.42-3.58 8-8 8h-24c-4.42 0-8-3.58-8-8z" stroke="#f2f2f2" fill="#d2d3d5"/><path d="M533 706.86h265.57" stroke="#999" fill="none"/><path d="M518.24 706.86l14.26-4.63v9.27z" stroke="#999" fill="#999"/><path d="M799.07 707.36h-.5v-1h.5z" fill="#999"/><use xlink:href="#t" transform="matrix(1,0,0,1,622.7028581518261,684.1973244052838) translate(0 12.444444444444446)"/><path d="M1118.27 786.1c0-4.4 3.58-8 8-8h24c4.4 0 8 3.6 8 8V992c0 4.42-3.6 8-8 8h-24c-4.42 0-8-3.58-8-8z" stroke="#f2f2f2" fill="#d2d3d5"/><path d="M516.62 818.2h584.76" stroke="#999" fill="none"/><path d="M516.62 818.7h-.5v-1h.5z" fill="#999"/><path d="M1116.15 818.2l-14.27 4.64v-9.27z" stroke="#999" fill="#999"/><use xlink:href="#u" transform="matrix(1,0,0,1,731.476767149858,795.5369983099672) translate(0 12.444444444444446)"/><path d="M533 880h584.77" stroke="#999" fill="none"/><path d="M518.24 880l14.26-4.64v9.28z" stroke="#999" fill="#999"/><path d="M1118.27 880.5h-.5v-1h.5z" fill="#999"/><use xlink:href="#v" transform="matrix(1,0,0,1,714.9213612706054,857.3333333333333) translate(0 12.444444444444446)"/><path d="M1437.46 868c0-4.42 3.58-8 8-8h24c4.42 0 8 3.58 8 8v284c0 4.42-3.58 8-8 8h-24c-4.42 0-8-3.58-8-8z" stroke="#f2f2f2" fill="#d2d3d5"/><path d="M1175.15 938.1h261.8" stroke="#999" fill="none"/><path d="M1160.38 938.1l14.27-4.63v9.27z" stroke="#999" fill="#999"/><path d="M1437.46 938.6h-.5v-1h.5z" fill="#999"/><use xlink:href="#w" transform="matrix(1,0,0,1,1242.2514430992162,915.4414575661267) translate(0 12.444444444444446)"/><path d="M200.25 1040h1220.33" stroke="#999" fill="none"/><path d="M200.25 1040.5h-.5v-1h.5z" fill="#999"/><path d="M1435.34 1040l-14.26 4.64v-9.28z" stroke="#999" fill="#999"/><g><use xlink:href="#x" transform="matrix(1,0,0,1,831.6808630998601,1017.3333333333334) translate(0 12.444444444444446)"/></g><path d="M200.25 1098.52h1220.33" stroke="#999" fill="none"/><path d="M200.25 1099.02h-.5v-1h.5z" fill="#999"/><path d="M1435.34 1098.52l-14.27 4.64v-9.27z" stroke="#999" fill="#999"/><g><use xlink:href="#y" transform="matrix(1,0,0,1,824.9385984920639,1075.8580337191286) translate(0 12.444444444444446)"/></g><defs><path fill="#666" d="M182-130c37 4 62 22 62 59C244 23 116-4 24 0v-248c84 5 203-23 205 63 0 31-19 50-47 55zM76-148c40-3 101 13 101-30 0-44-60-28-101-31v61zm0 110c48-3 116 14 116-37 0-48-69-32-116-35v72" id="z"/><path fill="#666" d="M24 0v-248h52v208h133V0H24" id="A"/><path fill="#666" d="M238-95c0 69-44 99-111 99C63 4 22-25 22-93v-155h51v151c-1 38 19 59 55 60 90 1 49-130 58-211h52v153" id="B"/><path fill="#666" d="M24 0v-248h195v40H76v63h132v40H76v65h150V0H24" id="C"/><path fill="#666" d="M240-174c0 40-23 61-54 70L253 0h-59l-57-94H76V0H24v-248c93 4 217-23 216 74zM76-134c48-2 112 12 112-38 0-48-66-32-112-35v73" id="D"/><path fill="#666" d="M146-102V0H94v-102L6-248h54l60 105 60-105h54" id="E"/><g id="a"><use transform="matrix(0.04320987654320988,0,0,0.04320987654320988,0,0)" xlink:href="#z"/><use transform="matrix(0.04320987654320988,0,0,0.04320987654320988,11.19135802469136,0)" xlink:href="#A"/><use transform="matrix(0.04320987654320988,0,0,0.04320987654320988,20.654320987654323,0)" xlink:href="#B"/><use transform="matrix(0.04320987654320988,0,0,0.04320987654320988,31.845679012345684,0)" xlink:href="#C"/><use transform="matrix(0.04320987654320988,0,0,0.04320987654320988,42.21604938271606,0)" xlink:href="#z"/><use transform="matrix(0.04320987654320988,0,0,0.04320987654320988,53.407407407407426,0)" xlink:href="#C"/><use transform="matrix(0.04320987654320988,0,0,0.04320987654320988,63.77777777777779,0)" xlink:href="#D"/><use transform="matrix(0.04320987654320988,0,0,0.04320987654320988,74.96913580246915,0)" xlink:href="#D"/><use transform="matrix(0.04320987654320988,0,0,0.04320987654320988,85.59876543209877,0)" xlink:href="#E"/></g><path fill="#666" d="M76-208v77h127v40H76V0H24v-248h183v40H76" id="F"/><path fill="#666" d="M199 0l-22-63H83L61 0H9l90-248h61L250 0h-51zm-33-102l-36-108c-10 38-24 72-36 108h72" id="G"/><path fill="#666" d="M230 0l2-204L168 0h-37L68-204 70 0H24v-248h70l56 185 57-185h69V0h-46" id="H"/><g id="b"><use transform="matrix(0.04320987654320988,0,0,0.04320987654320988,0,0)" xlink:href="#F"/><use transform="matrix(0.04320987654320988,0,0,0.04320987654320988,8.598765432098766,0)" xlink:href="#G"/><use transform="matrix(0.04320987654320988,0,0,0.04320987654320988,19.790123456790127,0)" xlink:href="#D"/><use transform="matrix(0.04320987654320988,0,0,0.04320987654320988,30.981481481481488,0)" xlink:href="#H"/><use transform="matrix(0.04320987654320988,0,0,0.04320987654320988,43.90123456790124,0)" xlink:href="#C"/><use transform="matrix(0.04320987654320988,0,0,0.04320987654320988,54.27160493827161,0)" xlink:href="#D"/></g><path fill="#666" d="M24-248c120-7 223 5 221 122C244-46 201 0 124 0H24v-248zM76-40c74 7 117-18 117-86 0-67-45-88-117-82v168" id="I"/><path fill="#666" d="M24 0v-248h52V0H24" id="J"/><path fill="#666" d="M169-182c-1-43-94-46-97-3 18 66 151 10 154 114 3 95-165 93-204 36-6-8-10-19-12-30l50-8c3 46 112 56 116 5-17-69-150-10-154-114-4-87 153-88 188-35 5 8 8 18 10 28" id="K"/><path fill="#666" d="M136-208V0H84v-208H4v-40h212v40h-80" id="L"/><g id="c"><use transform="matrix(0.04320987654320988,0,0,0.04320987654320988,0,0)" xlink:href="#I"/><use transform="matrix(0.04320987654320988,0,0,0.04320987654320988,11.19135802469136,0)" xlink:href="#J"/><use transform="matrix(0.04320987654320988,0,0,0.04320987654320988,15.512345679012347,0)" xlink:href="#K"/><use transform="matrix(0.04320987654320988,0,0,0.04320987654320988,25.882716049382722,0)" xlink:href="#L"/><use transform="matrix(0.04320987654320988,0,0,0.04320987654320988,35.345679012345684,0)" xlink:href="#D"/><use transform="matrix(0.04320987654320988,0,0,0.04320987654320988,46.537037037037045,0)" xlink:href="#z"/><use transform="matrix(0.04320987654320988,0,0,0.04320987654320988,57.72839506172841,0)" xlink:href="#B"/><use transform="matrix(0.04320987654320988,0,0,0.04320987654320988,68.91975308641976,0)" xlink:href="#L"/><use transform="matrix(0.04320987654320988,0,0,0.04320987654320988,78.38271604938272,0)" xlink:href="#C"/><use transform="matrix(0.04320987654320988,0,0,0.04320987654320988,88.75308641975309,0)" xlink:href="#D"/></g><path fill="#666" d="M114-157C55-157 80-60 75 0H25v-261h50l-1 109c12-26 28-41 61-42 86-1 58 113 63 194h-50c-7-57 23-157-34-157" id="M"/><path fill="#666" d="M133-34C117-15 103 5 69 4 32 3 11-16 11-54c-1-60 55-63 116-61 1-26-3-47-28-47-18 1-26 9-28 27l-52-2c7-38 36-58 82-57s74 22 75 68l1 82c-1 14 12 18 25 15v27c-30 8-71 5-69-32zm-48 3c29 0 43-24 42-57-32 0-66-3-65 30 0 17 8 27 23 27" id="N"/><path fill="#666" d="M135-150c-39-12-60 13-60 57V0H25l-1-190h47c2 13-1 29 3 40 6-28 27-53 61-41v41" id="O"/><path fill="#666" d="M128 0H69L1-190h53L99-40l48-150h52" id="P"/><path fill="#666" d="M185-48c-13 30-37 53-82 52C43 2 14-33 14-96s30-98 90-98c62 0 83 45 84 108H66c0 31 8 55 39 56 18 0 30-7 34-22zm-45-69c5-46-57-63-70-21-2 6-4 13-4 21h74" id="Q"/><path fill="#666" d="M137-138c1-29-70-34-71-4 15 46 118 7 119 86 1 83-164 76-172 9l43-7c4 19 20 25 44 25 33 8 57-30 24-41C81-84 22-81 20-136c-2-80 154-74 161-7" id="R"/><path fill="#666" d="M115-3C79 11 28 4 28-45v-112H4v-33h27l15-45h31v45h36v33H77v99c-1 23 16 31 38 25v30" id="S"/><path fill="#666" d="M220-157c-53 9-28 100-34 157h-49v-107c1-27-5-49-29-50C55-147 81-57 75 0H25l-1-190h47c2 12-1 28 3 38 10-53 101-56 108 0 13-22 24-43 59-42 82 1 51 116 57 194h-49v-107c-1-25-5-48-29-50" id="T"/><path fill="#666" d="M67-93c0 74 22 123 53 168H70C40 30 18-18 18-93s22-123 52-168h50c-32 44-53 94-53 168" id="U"/><path fill="#666" d="M102-93c0 74-22 123-52 168H0C30 29 54-18 53-93c0-74-22-123-53-168h50c30 45 52 94 52 168" id="V"/><g id="d"><use transform="matrix(0.04320987654320988,0,0,0.04320987654320988,0,0)" xlink:href="#M"/><use transform="matrix(0.04320987654320988,0,0,0.04320987654320988,9.462962962962964,0)" xlink:href="#N"/><use transform="matrix(0.04320987654320988,0,0,0.04320987654320988,18.10493827160494,0)" xlink:href="#O"/><use transform="matrix(0.04320987654320988,0,0,0.04320987654320988,24.154320987654323,0)" xlink:href="#P"/><use transform="matrix(0.04320987654320988,0,0,0.04320987654320988,32.7962962962963,0)" xlink:href="#Q"/><use transform="matrix(0.04320987654320988,0,0,0.04320987654320988,41.43827160493827,0)" xlink:href="#R"/><use transform="matrix(0.04320987654320988,0,0,0.04320987654320988,50.08024691358024,0)" xlink:href="#S"/><use transform="matrix(0.04320987654320988,0,0,0.04320987654320988,55.22222222222222,0)" xlink:href="#J"/><use transform="matrix(0.04320987654320988,0,0,0.04320987654320988,59.54320987654321,0)" xlink:href="#S"/><use transform="matrix(0.04320987654320988,0,0,0.04320987654320988,64.68518518518519,0)" xlink:href="#Q"/><use transform="matrix(0.04320987654320988,0,0,0.04320987654320988,73.32716049382717,0)" xlink:href="#T"/><use transform="matrix(0.04320987654320988,0,0,0.04320987654320988,87.15432098765433,0)" xlink:href="#U"/><use transform="matrix(0.04320987654320988,0,0,0.04320987654320988,92.2962962962963,0)" xlink:href="#V"/></g><path fill="#b2b2b2" d="M182-130c37 4 62 22 62 59C244 23 116-4 24 0v-248c84 5 203-23 205 63 0 31-19 50-47 55zM76-148c40-3 101 13 101-30 0-44-60-28-101-31v61zm0 110c48-3 116 14 116-37 0-48-69-32-116-35v72" id="W"/><path fill="#b2b2b2" d="M25 0v-261h50V0H25" id="X"/><path fill="#b2b2b2" d="M85 4C-2 5 27-109 22-190h50c7 57-23 150 33 157 60-5 35-97 40-157h50l1 190h-47c-2-12 1-28-3-38-12 25-28 42-61 42" id="Y"/><path fill="#b2b2b2" d="M185-48c-13 30-37 53-82 52C43 2 14-33 14-96s30-98 90-98c62 0 83 45 84 108H66c0 31 8 55 39 56 18 0 30-7 34-22zm-45-69c5-46-57-63-70-21-2 6-4 13-4 21h74" id="Z"/><path fill="#b2b2b2" d="M135-194c52 0 70 43 70 98 0 56-19 99-73 100-30 1-46-15-58-35L72 0H24l1-261h50v104c11-23 29-37 60-37zM114-30c31 0 40-27 40-66 0-37-7-63-39-63s-41 28-41 65c0 36 8 64 40 64" id="aa"/><path fill="#b2b2b2" d="M135-150c-39-12-60 13-60 57V0H25l-1-190h47c2 13-1 29 3 40 6-28 27-53 61-41v41" id="ab"/><path fill="#b2b2b2" d="M25-224v-37h50v37H25zM25 0v-190h50V0H25" id="ac"/><path fill="#b2b2b2" d="M137-138c1-29-70-34-71-4 15 46 118 7 119 86 1 83-164 76-172 9l43-7c4 19 20 25 44 25 33 8 57-30 24-41C81-84 22-81 20-136c-2-80 154-74 161-7" id="ad"/><g id="e"><use transform="matrix(0.07407407407407408,0,0,0.07407407407407408,0,0)" xlink:href="#W"/><use transform="matrix(0.07407407407407408,0,0,0.07407407407407408,19.185185185185187,0)" xlink:href="#X"/><use transform="matrix(0.07407407407407408,0,0,0.07407407407407408,26.592592592592595,0)" xlink:href="#Y"/><use transform="matrix(0.07407407407407408,0,0,0.07407407407407408,42.814814814814824,0)" xlink:href="#Z"/><use transform="matrix(0.07407407407407408,0,0,0.07407407407407408,57.62962962962964,0)" xlink:href="#aa"/><use transform="matrix(0.07407407407407408,0,0,0.07407407407407408,73.85185185185186,0)" xlink:href="#Z"/><use transform="matrix(0.07407407407407408,0,0,0.07407407407407408,88.66666666666667,0)" xlink:href="#ab"/><use transform="matrix(0.07407407407407408,0,0,0.07407407407407408,99.03703703703705,0)" xlink:href="#ab"/><use transform="matrix(0.07407407407407408,0,0,0.07407407407407408,109.40740740740742,0)" xlink:href="#ac"/><use transform="matrix(0.07407407407407408,0,0,0.07407407407407408,116.81481481481482,0)" xlink:href="#Z"/><use transform="matrix(0.07407407407407408,0,0,0.07407407407407408,131.62962962962965,0)" xlink:href="#ad"/></g><path fill="#b2b2b2" d="M169-182c-1-43-94-46-97-3 18 66 151 10 154 114 3 95-165 93-204 36-6-8-10-19-12-30l50-8c3 46 112 56 116 5-17-69-150-10-154-114-4-87 153-88 188-35 5 8 8 18 10 28" id="ae"/><path fill="#b2b2b2" d="M84 4C32 4 15-41 15-95c0-55 18-99 73-99 29 0 47 12 58 34l2-30h48l-1 265h-49V-32C136-9 114 4 84 4zm21-34c32 0 41-29 41-66 0-36-9-64-40-64-33 0-39 30-40 65 0 43 13 65 39 65" id="af"/><path fill="#b2b2b2" d="M135-194c87-1 58 113 63 194h-50c-7-57 23-157-34-157-59 0-34 97-39 157H25l-1-190h47c2 12-1 28 3 38 12-26 28-41 61-42" id="ag"/><path fill="#b2b2b2" d="M190-63c-7 42-38 67-86 67-59 0-84-38-90-98-12-110 154-137 174-36l-49 2c-2-19-15-32-35-32-30 0-35 28-38 64-6 74 65 87 74 30" id="ah"/><g id="f"><use transform="matrix(0.07407407407407408,0,0,0.07407407407407408,0,0)" xlink:href="#ae"/><use transform="matrix(0.07407407407407408,0,0,0.07407407407407408,17.77777777777778,0)" xlink:href="#Z"/><use transform="matrix(0.07407407407407408,0,0,0.07407407407407408,32.592592592592595,0)" xlink:href="#af"/><use transform="matrix(0.07407407407407408,0,0,0.07407407407407408,48.814814814814824,0)" xlink:href="#Y"/><use transform="matrix(0.07407407407407408,0,0,0.07407407407407408,65.03703703703705,0)" xlink:href="#Z"/><use transform="matrix(0.07407407407407408,0,0,0.07407407407407408,79.85185185185188,0)" xlink:href="#ag"/><use transform="matrix(0.07407407407407408,0,0,0.07407407407407408,96.0740740740741,0)" xlink:href="#ah"/><use transform="matrix(0.07407407407407408,0,0,0.07407407407407408,110.88888888888891,0)" xlink:href="#Z"/></g><path fill="#b2b2b2" d="M24-248c120-7 223 5 221 122C244-46 201 0 124 0H24v-248zM76-40c74 7 117-18 117-86 0-67-45-88-117-82v168" id="ai"/><path fill="#b2b2b2" d="M133-34C117-15 103 5 69 4 32 3 11-16 11-54c-1-60 55-63 116-61 1-26-3-47-28-47-18 1-26 9-28 27l-52-2c7-38 36-58 82-57s74 22 75 68l1 82c-1 14 12 18 25 15v27c-30 8-71 5-69-32zm-48 3c29 0 43-24 42-57-32 0-66-3-65 30 0 17 8 27 23 27" id="aj"/><path fill="#b2b2b2" d="M195-6C206 82 75 100 31 46c-4-6-6-13-8-21l49-6c3 16 16 24 34 25 40 0 42-37 40-79-11 22-30 35-61 35-53 0-70-43-70-97 0-56 18-96 73-97 30 0 46 14 59 34l2-30h47zm-90-29c32 0 41-27 41-63 0-35-9-62-40-62-32 0-39 29-40 63 0 36 9 62 39 62" id="ak"/><path fill="#b2b2b2" d="M220-157c-53 9-28 100-34 157h-49v-107c1-27-5-49-29-50C55-147 81-57 75 0H25l-1-190h47c2 12-1 28 3 38 10-53 101-56 108 0 13-22 24-43 59-42 82 1 51 116 57 194h-49v-107c-1-25-5-48-29-50" id="al"/><g id="g"><use transform="matrix(0.07407407407407408,0,0,0.07407407407407408,0,0)" xlink:href="#ai"/><use transform="matrix(0.07407407407407408,0,0,0.07407407407407408,19.185185185185187,0)" xlink:href="#ac"/><use transform="matrix(0.07407407407407408,0,0,0.07407407407407408,26.592592592592595,0)" xlink:href="#aj"/><use transform="matrix(0.07407407407407408,0,0,0.07407407407407408,41.40740740740741,0)" xlink:href="#ak"/><use transform="matrix(0.07407407407407408,0,0,0.07407407407407408,57.62962962962964,0)" xlink:href="#ab"/><use transform="matrix(0.07407407407407408,0,0,0.07407407407407408,68,0)" xlink:href="#aj"/><use transform="matrix(0.07407407407407408,0,0,0.07407407407407408,82.81481481481481,0)" xlink:href="#al"/></g><path fill="#b2b2b2" d="M190 0L58-211 59 0H30v-248h39L202-35l-2-213h31V0h-41" id="am"/><path fill="#b2b2b2" d="M141-36C126-15 110 5 73 4 37 3 15-17 15-53c-1-64 63-63 125-63 3-35-9-54-41-54-24 1-41 7-42 31l-33-3c5-37 33-52 76-52 45 0 72 20 72 64v82c-1 20 7 32 28 27v20c-31 9-61-2-59-35zM48-53c0 20 12 33 32 33 41-3 63-29 60-74-43 2-92-5-92 41" id="an"/><path fill="#b2b2b2" d="M24-231v-30h32v30H24zM24 0v-190h32V0H24" id="ao"/><path fill="#b2b2b2" d="M101-234c-31-9-42 10-38 44h38v23H63V0H32v-167H5v-23h27c-7-52 17-82 69-68v24" id="ap"/><g id="h"><use transform="matrix(0.04320987654320988,0,0,0.04320987654320988,0,0)" xlink:href="#am"/><use transform="matrix(0.04320987654320988,0,0,0.04320987654320988,11.19135802469136,0)" xlink:href="#an"/><use transform="matrix(0.04320987654320988,0,0,0.04320987654320988,19.833333333333336,0)" xlink:href="#ao"/><use transform="matrix(0.04320987654320988,0,0,0.04320987654320988,23.246913580246915,0)" xlink:href="#ap"/></g><path fill="#b2b2b2" d="M205 0l-28-72H64L36 0H1l101-248h38L239 0h-34zm-38-99l-47-123c-12 45-31 82-46 123h93" id="aq"/><path fill="#b2b2b2" d="M24 0v-261h32V0H24" id="ar"/><path fill="#b2b2b2" d="M135-143c-3-34-86-38-87 0 15 53 115 12 119 90S17 21 10-45l28-5c4 36 97 45 98 0-10-56-113-15-118-90-4-57 82-63 122-42 12 7 21 19 24 35" id="as"/><path fill="#b2b2b2" d="M100-194c63 0 86 42 84 106H49c0 40 14 67 53 68 26 1 43-12 49-29l28 8c-11 28-37 45-77 45C44 4 14-33 15-96c1-61 26-98 85-98zm52 81c6-60-76-77-97-28-3 7-6 17-6 28h103" id="at"/><path fill="#b2b2b2" d="M106-169C34-169 62-67 57 0H25v-261h32l-1 103c12-21 28-36 61-36 89 0 53 116 60 194h-32v-121c2-32-8-49-39-48" id="au"/><g id="i"><use transform="matrix(0.04320987654320988,0,0,0.04320987654320988,0,0)" xlink:href="#aq"/><use transform="matrix(0.04320987654320988,0,0,0.04320987654320988,10.370370370370372,0)" xlink:href="#ar"/><use transform="matrix(0.04320987654320988,0,0,0.04320987654320988,13.783950617283953,0)" xlink:href="#as"/><use transform="matrix(0.04320987654320988,0,0,0.04320987654320988,21.56172839506173,0)" xlink:href="#an"/><use transform="matrix(0.04320987654320988,0,0,0.04320987654320988,30.203703703703713,0)" xlink:href="#ar"/><use transform="matrix(0.04320987654320988,0,0,0.04320987654320988,33.61728395061729,0)" xlink:href="#at"/><use transform="matrix(0.04320987654320988,0,0,0.04320987654320988,42.25925925925927,0)" xlink:href="#au"/></g><path fill="#b2b2b2" d="M32 76v-337h29V76H32" id="av"/><use transform="matrix(0.04320987654320988,0,0,0.04320987654320988,0,0)" xlink:href="#av" id="j"/><path fill="#b2b2b2" d="M63-220v92h138v28H63V0H30v-248h175v28H63" id="aw"/><path fill="#b2b2b2" d="M115-194c53 0 69 39 70 98 0 66-23 100-70 100C84 3 66-7 56-30L54 0H23l1-261h32v101c10-23 28-34 59-34zm-8 174c40 0 45-34 45-75 0-40-5-75-45-74-42 0-51 32-51 76 0 43 10 73 51 73" id="ax"/><path fill="#b2b2b2" d="M114-163C36-179 61-72 57 0H25l-1-190h30c1 12-1 29 2 39 6-27 23-49 58-41v29" id="ay"/><path fill="#b2b2b2" d="M84 4C-5 8 30-112 23-190h32v120c0 31 7 50 39 49 72-2 45-101 50-169h31l1 190h-30c-1-10 1-25-2-33-11 22-28 36-60 37" id="az"/><path fill="#b2b2b2" d="M179-190L93 31C79 59 56 82 12 73V49c39 6 53-20 64-50L1-190h34L92-34l54-156h33" id="aA"/><g id="k"><use transform="matrix(0.04320987654320988,0,0,0.04320987654320988,0,0)" xlink:href="#aw"/><use transform="matrix(0.04320987654320988,0,0,0.04320987654320988,9.462962962962964,0)" xlink:href="#at"/><use transform="matrix(0.04320987654320988,0,0,0.04320987654320988,18.10493827160494,0)" xlink:href="#ax"/><use transform="matrix(0.04320987654320988,0,0,0.04320987654320988,26.746913580246915,0)" xlink:href="#ay"/><use transform="matrix(0.04320987654320988,0,0,0.04320987654320988,31.888888888888893,0)" xlink:href="#az"/><use transform="matrix(0.04320987654320988,0,0,0.04320987654320988,40.53086419753087,0)" xlink:href="#an"/><use transform="matrix(0.04320987654320988,0,0,0.04320987654320988,49.17283950617284,0)" xlink:href="#ay"/><use transform="matrix(0.04320987654320988,0,0,0.04320987654320988,54.314814814814824,0)" xlink:href="#aA"/></g><path fill="#b2b2b2" d="M101-251c82-7 93 87 43 132L82-64C71-53 59-42 53-27h129V0H18c2-99 128-94 128-182 0-28-16-43-45-43s-46 15-49 41l-32-3c6-41 34-60 81-64" id="aB"/><path fill="#b2b2b2" d="M126-127c33 6 58 20 58 59 0 88-139 92-164 29-3-8-5-16-6-25l32-3c6 27 21 44 54 44 32 0 52-15 52-46 0-38-36-46-79-43v-28c39 1 72-4 72-42 0-27-17-43-46-43-28 0-47 15-49 41l-32-3c6-42 35-63 81-64 48-1 79 21 79 65 0 36-21 52-52 59" id="aC"/><path fill="#b2b2b2" d="M68-38c1 34 0 65-14 84H32c9-13 17-26 17-46H33v-38h35" id="aD"/><g id="l"><use transform="matrix(0.04320987654320988,0,0,0.04320987654320988,0,0)" xlink:href="#aB"/><use transform="matrix(0.04320987654320988,0,0,0.04320987654320988,8.641975308641976,0)" xlink:href="#aC"/><use transform="matrix(0.04320987654320988,0,0,0.04320987654320988,17.283950617283953,0)" xlink:href="#aD"/></g><path fill="#b2b2b2" d="M101-251c68 0 85 55 85 127S166 4 100 4C33 4 14-52 14-124c0-73 17-127 87-127zm-1 229c47 0 54-49 54-102s-4-102-53-102c-51 0-55 48-55 102 0 53 5 102 54 102" id="aE"/><path fill="#b2b2b2" d="M27 0v-27h64v-190l-56 39v-29l58-41h29v221h61V0H27" id="aF"/><path fill="#b2b2b2" d="M99-251c64 0 84 50 84 122C183-37 130 33 47-8c-14-7-20-23-25-40l30-5c6 39 69 39 84 7 9-19 16-44 16-74-10 22-31 35-62 35-49 0-73-33-73-83 0-54 28-83 82-83zm-1 141c31-1 51-18 51-49 0-36-14-67-51-67-34 0-49 23-49 58 0 34 15 58 49 58" id="aG"/><g id="m"><use transform="matrix(0.04320987654320988,0,0,0.04320987654320988,0,0)" xlink:href="#aB"/><use transform="matrix(0.04320987654320988,0,0,0.04320987654320988,8.641975308641976,0)" xlink:href="#aE"/><use transform="matrix(0.04320987654320988,0,0,0.04320987654320988,17.283950617283953,0)" xlink:href="#aF"/><use transform="matrix(0.04320987654320988,0,0,0.04320987654320988,25.925925925925927,0)" xlink:href="#aG"/></g><path fill="#666" d="M135-194c53 0 70 44 70 98 0 56-19 98-73 100-31 1-45-17-59-34 3 33 2 69 2 105H25l-1-265h48c2 10 0 23 3 31 11-24 29-35 60-35zM114-30c33 0 39-31 40-66 0-38-9-64-40-64-56 0-55 130 0 130" id="aH"/><path fill="#666" d="M110-194c64 0 96 36 96 99 0 64-35 99-97 99-61 0-95-36-95-99 0-62 34-99 96-99zm-1 164c35 0 45-28 45-65 0-40-10-65-43-65-34 0-45 26-45 65 0 36 10 65 43 65" id="aI"/><path fill="#666" d="M190-63c-7 42-38 67-86 67-59 0-84-38-90-98-12-110 154-137 174-36l-49 2c-2-19-15-32-35-32-30 0-35 28-38 64-6 74 65 87 74 30" id="aJ"/><g id="n"><use transform="matrix(0.04320987654320988,0,0,0.04320987654320988,0,0)" xlink:href="#aH"/><use transform="matrix(0.04320987654320988,0,0,0.04320987654320988,9.462962962962964,0)" xlink:href="#O"/><use transform="matrix(0.04320987654320988,0,0,0.04320987654320988,15.512345679012347,0)" xlink:href="#aI"/><use transform="matrix(0.04320987654320988,0,0,0.04320987654320988,24.97530864197531,0)" xlink:href="#aJ"/><use transform="matrix(0.04320987654320988,0,0,0.04320987654320988,33.617283950617285,0)" xlink:href="#Q"/><use transform="matrix(0.04320987654320988,0,0,0.04320987654320988,42.25925925925926,0)" xlink:href="#R"/><use transform="matrix(0.04320987654320988,0,0,0.04320987654320988,50.90123456790123,0)" xlink:href="#R"/><use transform="matrix(0.04320987654320988,0,0,0.04320987654320988,59.54320987654321,0)" xlink:href="#J"/><use transform="matrix(0.04320987654320988,0,0,0.04320987654320988,63.864197530864196,0)" xlink:href="#S"/><use transform="matrix(0.04320987654320988,0,0,0.04320987654320988,69.00617283950618,0)" xlink:href="#Q"/><use transform="matrix(0.04320987654320988,0,0,0.04320987654320988,77.64814814814815,0)" xlink:href="#T"/><use transform="matrix(0.04320987654320988,0,0,0.04320987654320988,91.47530864197532,0)" xlink:href="#U"/><use transform="matrix(0.04320987654320988,0,0,0.04320987654320988,96.61728395061729,0)" xlink:href="#V"/></g><path fill="#666" d="M147 0L96-86 75-71V0H25v-261h50v150l67-79h53l-66 74L201 0h-54" id="aK"/><g id="o"><use transform="matrix(0.04320987654320988,0,0,0.04320987654320988,0,0)" xlink:href="#aH"/><use transform="matrix(0.04320987654320988,0,0,0.04320987654320988,9.462962962962964,0)" xlink:href="#N"/><use transform="matrix(0.04320987654320988,0,0,0.04320987654320988,18.10493827160494,0)" xlink:href="#aJ"/><use transform="matrix(0.04320987654320988,0,0,0.04320987654320988,26.746913580246915,0)" xlink:href="#aK"/><use transform="matrix(0.04320987654320988,0,0,0.04320987654320988,35.38888888888889,0)" xlink:href="#J"/><use transform="matrix(0.04320987654320988,0,0,0.04320987654320988,39.70987654320988,0)" xlink:href="#S"/><use transform="matrix(0.04320987654320988,0,0,0.04320987654320988,44.851851851851855,0)" xlink:href="#Q"/><use transform="matrix(0.04320987654320988,0,0,0.04320987654320988,53.49382716049383,0)" xlink:href="#T"/><use transform="matrix(0.04320987654320988,0,0,0.04320987654320988,67.32098765432099,0)" xlink:href="#U"/><use transform="matrix(0.04320987654320988,0,0,0.04320987654320988,72.46296296296296,0)" xlink:href="#V"/></g><path fill="#666" d="M88-194c31-1 46 15 58 34l-1-101h50l1 261h-48c-2-10 0-23-3-31C134-8 116 4 84 4 32 4 16-41 15-95c0-56 19-97 73-99zm17 164c33 0 40-30 41-66 1-37-9-64-41-64s-38 30-39 65c0 43 13 65 39 65" id="aL"/><g id="p"><use transform="matrix(0.04320987654320988,0,0,0.04320987654320988,0,0)" xlink:href="#N"/><use transform="matrix(0.04320987654320988,0,0,0.04320987654320988,8.641975308641976,0)" xlink:href="#aL"/><use transform="matrix(0.04320987654320988,0,0,0.04320987654320988,18.10493827160494,0)" xlink:href="#aL"/><use transform="matrix(0.04320987654320988,0,0,0.04320987654320988,27.567901234567906,0)" xlink:href="#J"/><use transform="matrix(0.04320987654320988,0,0,0.04320987654320988,31.888888888888893,0)" xlink:href="#S"/><use transform="matrix(0.04320987654320988,0,0,0.04320987654320988,37.03086419753087,0)" xlink:href="#Q"/><use transform="matrix(0.04320987654320988,0,0,0.04320987654320988,45.67283950617284,0)" xlink:href="#T"/><use transform="matrix(0.04320987654320988,0,0,0.04320987654320988,59.49999999999999,0)" xlink:href="#U"/><use transform="matrix(0.04320987654320988,0,0,0.04320987654320988,64.64197530864197,0)" xlink:href="#V"/></g><g id="q"><use transform="matrix(0.04320987654320988,0,0,0.04320987654320988,0,0)" xlink:href="#D"/><use transform="matrix(0.04320987654320988,0,0,0.04320987654320988,11.19135802469136,0)" xlink:href="#C"/><use transform="matrix(0.04320987654320988,0,0,0.04320987654320988,21.56172839506173,0)" xlink:href="#L"/><use transform="matrix(0.04320987654320988,0,0,0.04320987654320988,29.85802469135803,0)" xlink:href="#G"/><use transform="matrix(0.04320987654320988,0,0,0.04320987654320988,41.04938271604939,0)" xlink:href="#J"/><use transform="matrix(0.04320987654320988,0,0,0.04320987654320988,45.370370370370374,0)" xlink:href="#A"/><use transform="matrix(0.04320987654320988,0,0,0.04320987654320988,54.833333333333336,0)" xlink:href="#C"/><use transform="matrix(0.04320987654320988,0,0,0.04320987654320988,65.20370370370371,0)" xlink:href="#D"/></g><path fill="#666" d="M67-125c0 53 21 87 73 88 37 1 54-22 65-47l45 17C233-25 199 4 140 4 58 4 20-42 15-125 8-235 124-281 211-232c18 10 29 29 36 50l-46 12c-8-25-30-41-62-41-52 0-71 34-72 86" id="aM"/><path fill="#666" d="M140-251c80 0 125 45 125 126S219 4 139 4C58 4 15-44 15-125s44-126 125-126zm-1 214c52 0 73-35 73-88 0-50-21-86-72-86-52 0-73 35-73 86s22 88 72 88" id="aN"/><path fill="#666" d="M175 0L67-191c6 58 2 128 3 191H24v-248h59L193-55c-6-58-2-129-3-193h46V0h-61" id="aO"/><g id="r"><use transform="matrix(0.04320987654320988,0,0,0.04320987654320988,0,0)" xlink:href="#aM"/><use transform="matrix(0.04320987654320988,0,0,0.04320987654320988,11.19135802469136,0)" xlink:href="#aN"/><use transform="matrix(0.04320987654320988,0,0,0.04320987654320988,23.290123456790127,0)" xlink:href="#aO"/><use transform="matrix(0.04320987654320988,0,0,0.04320987654320988,34.48148148148149,0)" xlink:href="#K"/><use transform="matrix(0.04320987654320988,0,0,0.04320987654320988,44.85185185185187,0)" xlink:href="#B"/><use transform="matrix(0.04320987654320988,0,0,0.04320987654320988,56.04320987654322,0)" xlink:href="#H"/><use transform="matrix(0.04320987654320988,0,0,0.04320987654320988,68.96296296296298,0)" xlink:href="#C"/><use transform="matrix(0.04320987654320988,0,0,0.04320987654320988,79.33333333333334,0)" xlink:href="#D"/></g><path fill="#fff" d="M136-208V0H84v-208H4v-40h212v40h-80" id="aP"/><path fill="#fff" d="M24 0v-248h195v40H76v63h132v40H76v65h150V0H24" id="aQ"/><path fill="#fff" d="M182 0l-62-99L58 0H3l86-130-79-118h55l55 88 55-88h55l-75 118L237 0h-55" id="aR"/><g id="s"><use transform="matrix(0.04320987654320988,0,0,0.04320987654320988,0,0)" xlink:href="#aP"/><use transform="matrix(0.04320987654320988,0,0,0.04320987654320988,9.462962962962964,0)" xlink:href="#aQ"/><use transform="matrix(0.04320987654320988,0,0,0.04320987654320988,19.833333333333336,0)" xlink:href="#aR"/><use transform="matrix(0.04320987654320988,0,0,0.04320987654320988,30.203703703703713,0)" xlink:href="#aP"/></g><path fill="#666" d="M135-194c52 0 70 43 70 98 0 56-19 99-73 100-30 1-46-15-58-35L72 0H24l1-261h50v104c11-23 29-37 60-37zM114-30c31 0 40-27 40-66 0-37-7-63-39-63s-41 28-41 65c0 36 8 64 40 64" id="aS"/><path fill="#666" d="M85 4C-2 5 27-109 22-190h50c7 57-23 150 33 157 60-5 35-97 40-157h50l1 190h-47c-2-12 1-28-3-38-12 25-28 42-61 42" id="aT"/><path fill="#666" d="M123 10C108 53 80 86 19 72V37c35 8 53-11 59-39L3-190h52l48 148c12-52 28-100 44-148h51" id="aU"/><g id="t"><use transform="matrix(0.04320987654320988,0,0,0.04320987654320988,0,0)" xlink:href="#aS"/><use transform="matrix(0.04320987654320988,0,0,0.04320987654320988,9.462962962962964,0)" xlink:href="#aT"/><use transform="matrix(0.04320987654320988,0,0,0.04320987654320988,18.925925925925927,0)" xlink:href="#aU"/><use transform="matrix(0.04320987654320988,0,0,0.04320987654320988,27.567901234567906,0)" xlink:href="#J"/><use transform="matrix(0.04320987654320988,0,0,0.04320987654320988,31.888888888888893,0)" xlink:href="#S"/><use transform="matrix(0.04320987654320988,0,0,0.04320987654320988,37.03086419753087,0)" xlink:href="#Q"/><use transform="matrix(0.04320987654320988,0,0,0.04320987654320988,45.67283950617284,0)" xlink:href="#T"/><use transform="matrix(0.04320987654320988,0,0,0.04320987654320988,59.49999999999999,0)" xlink:href="#U"/><use transform="matrix(0.04320987654320988,0,0,0.04320987654320988,64.64197530864197,0)" xlink:href="#V"/></g><path fill="#666" d="M25-224v-37h50v37H25zM25 0v-190h50V0H25" id="aV"/><g id="u"><use transform="matrix(0.04320987654320988,0,0,0.04320987654320988,0,0)" xlink:href="#R"/><use transform="matrix(0.04320987654320988,0,0,0.04320987654320988,8.641975308641976,0)" xlink:href="#M"/><use transform="matrix(0.04320987654320988,0,0,0.04320987654320988,18.10493827160494,0)" xlink:href="#aV"/><use transform="matrix(0.04320987654320988,0,0,0.04320987654320988,22.425925925925927,0)" xlink:href="#aH"/><use transform="matrix(0.04320987654320988,0,0,0.04320987654320988,31.888888888888893,0)" xlink:href="#J"/><use transform="matrix(0.04320987654320988,0,0,0.04320987654320988,36.20987654320988,0)" xlink:href="#S"/><use transform="matrix(0.04320987654320988,0,0,0.04320987654320988,41.351851851851855,0)" xlink:href="#Q"/><use transform="matrix(0.04320987654320988,0,0,0.04320987654320988,49.99382716049383,0)" xlink:href="#T"/><use transform="matrix(0.04320987654320988,0,0,0.04320987654320988,63.82098765432099,0)" xlink:href="#U"/><use transform="matrix(0.04320987654320988,0,0,0.04320987654320988,68.96296296296296,0)" xlink:href="#V"/></g><g id="v"><use transform="matrix(0.04320987654320988,0,0,0.04320987654320988,0,0)" xlink:href="#O"/><use transform="matrix(0.04320987654320988,0,0,0.04320987654320988,6.049382716049383,0)" xlink:href="#Q"/><use transform="matrix(0.04320987654320988,0,0,0.04320987654320988,14.69135802469136,0)" xlink:href="#aJ"/><use transform="matrix(0.04320987654320988,0,0,0.04320987654320988,23.333333333333336,0)" xlink:href="#Q"/><use transform="matrix(0.04320987654320988,0,0,0.04320987654320988,31.97530864197531,0)" xlink:href="#aV"/><use transform="matrix(0.04320987654320988,0,0,0.04320987654320988,36.2962962962963,0)" xlink:href="#P"/><use transform="matrix(0.04320987654320988,0,0,0.04320987654320988,44.93827160493828,0)" xlink:href="#Q"/><use transform="matrix(0.04320987654320988,0,0,0.04320987654320988,53.58024691358024,0)" xlink:href="#J"/><use transform="matrix(0.04320987654320988,0,0,0.04320987654320988,57.901234567901234,0)" xlink:href="#S"/><use transform="matrix(0.04320987654320988,0,0,0.04320987654320988,63.04320987654321,0)" xlink:href="#Q"/><use transform="matrix(0.04320987654320988,0,0,0.04320987654320988,71.68518518518519,0)" xlink:href="#T"/><use transform="matrix(0.04320987654320988,0,0,0.04320987654320988,85.51234567901236,0)" xlink:href="#U"/><use transform="matrix(0.04320987654320988,0,0,0.04320987654320988,90.65432098765433,0)" xlink:href="#V"/></g><g id="w"><use transform="matrix(0.04320987654320988,0,0,0.04320987654320988,0,0)" xlink:href="#aH"/><use transform="matrix(0.04320987654320988,0,0,0.04320987654320988,9.462962962962964,0)" xlink:href="#aT"/><use transform="matrix(0.04320987654320988,0,0,0.04320987654320988,18.925925925925927,0)" xlink:href="#O"/><use transform="matrix(0.04320987654320988,0,0,0.04320987654320988,24.97530864197531,0)" xlink:href="#aJ"/><use transform="matrix(0.04320987654320988,0,0,0.04320987654320988,33.617283950617285,0)" xlink:href="#M"/><use transform="matrix(0.04320987654320988,0,0,0.04320987654320988,43.08024691358025,0)" xlink:href="#N"/><use transform="matrix(0.04320987654320988,0,0,0.04320987654320988,51.722222222222214,0)" xlink:href="#R"/><use transform="matrix(0.04320987654320988,0,0,0.04320987654320988,60.364197530864196,0)" xlink:href="#Q"/><use transform="matrix(0.04320987654320988,0,0,0.04320987654320988,69.00617283950618,0)" xlink:href="#J"/><use transform="matrix(0.04320987654320988,0,0,0.04320987654320988,73.32716049382717,0)" xlink:href="#S"/><use transform="matrix(0.04320987654320988,0,0,0.04320987654320988,78.46913580246914,0)" xlink:href="#Q"/><use transform="matrix(0.04320987654320988,0,0,0.04320987654320988,87.11111111111111,0)" xlink:href="#T"/><use transform="matrix(0.04320987654320988,0,0,0.04320987654320988,100.93827160493828,0)" xlink:href="#U"/><use transform="matrix(0.04320987654320988,0,0,0.04320987654320988,106.08024691358025,0)" xlink:href="#V"/></g><path fill="#666" d="M121-226c-27-7-43 5-38 36h38v33H83V0H34v-157H6v-33h28c-9-59 32-81 87-68v32" id="aW"/><g id="x"><use transform="matrix(0.04320987654320988,0,0,0.04320987654320988,0,0)" xlink:href="#aW"/><use transform="matrix(0.04320987654320988,0,0,0.04320987654320988,5.1419753086419755,0)" xlink:href="#Q"/><use transform="matrix(0.04320987654320988,0,0,0.04320987654320988,13.783950617283953,0)" xlink:href="#S"/><use transform="matrix(0.04320987654320988,0,0,0.04320987654320988,18.925925925925927,0)" xlink:href="#aJ"/><use transform="matrix(0.04320987654320988,0,0,0.04320987654320988,27.567901234567906,0)" xlink:href="#M"/><use transform="matrix(0.04320987654320988,0,0,0.04320987654320988,37.03086419753087,0)" xlink:href="#J"/><use transform="matrix(0.04320987654320988,0,0,0.04320987654320988,41.351851851851855,0)" xlink:href="#S"/><use transform="matrix(0.04320987654320988,0,0,0.04320987654320988,46.49382716049383,0)" xlink:href="#Q"/><use transform="matrix(0.04320987654320988,0,0,0.04320987654320988,55.13580246913581,0)" xlink:href="#T"/><use transform="matrix(0.04320987654320988,0,0,0.04320987654320988,68.96296296296296,0)" xlink:href="#U"/><use transform="matrix(0.04320987654320988,0,0,0.04320987654320988,74.10493827160494,0)" xlink:href="#V"/></g><path fill="#666" d="M186 0v-106H76V0H24v-248h52v99h110v-99h50V0h-50" id="aX"/><g id="y"><use transform="matrix(0.04320987654320988,0,0,0.04320987654320988,0,0)" xlink:href="#aW"/><use transform="matrix(0.04320987654320988,0,0,0.04320987654320988,5.1419753086419755,0)" xlink:href="#Q"/><use transform="matrix(0.04320987654320988,0,0,0.04320987654320988,13.783950617283953,0)" xlink:href="#S"/><use transform="matrix(0.04320987654320988,0,0,0.04320987654320988,18.925925925925927,0)" xlink:href="#aJ"/><use transform="matrix(0.04320987654320988,0,0,0.04320987654320988,27.567901234567906,0)" xlink:href="#M"/><use transform="matrix(0.04320987654320988,0,0,0.04320987654320988,37.03086419753087,0)" xlink:href="#J"/><use transform="matrix(0.04320987654320988,0,0,0.04320987654320988,41.351851851851855,0)" xlink:href="#S"/><use transform="matrix(0.04320987654320988,0,0,0.04320987654320988,46.49382716049383,0)" xlink:href="#Q"/><use transform="matrix(0.04320987654320988,0,0,0.04320987654320988,55.13580246913581,0)" xlink:href="#T"/><use transform="matrix(0.04320987654320988,0,0,0.04320987654320988,68.96296296296296,0)" xlink:href="#aX"/><use transform="matrix(0.04320987654320988,0,0,0.04320987654320988,80.15432098765432,0)" xlink:href="#aV"/><use transform="matrix(0.04320987654320988,0,0,0.04320987654320988,84.4753086419753,0)" xlink:href="#R"/><use transform="matrix(0.04320987654320988,0,0,0.04320987654320988,93.11728395061728,0)" xlink:href="#S"/><use transform="matrix(0.04320987654320988,0,0,0.04320987654320988,98.25925925925925,0)" xlink:href="#aI"/><use transform="matrix(0.04320987654320988,0,0,0.04320987654320988,107.72222222222221,0)" xlink:href="#O"/><use transform="matrix(0.04320987654320988,0,0,0.04320987654320988,113.7716049382716,0)" xlink:href="#aU"/><use transform="matrix(0.04320987654320988,0,0,0.04320987654320988,122.41358024691357,0)" xlink:href="#U"/><use transform="matrix(0.04320987654320988,0,0,0.04320987654320988,127.55555555555554,0)" xlink:href="#V"/></g></defs></g></svg>